<svg width="31" height="31" viewBox="0 0 31 31" fill="none" xmlns="http://www.w3.org/2000/svg">
<path d="M27.0284 11.2L23.495 21.8H12.5048C11.5884 19.0264 10.2302 14.7158 9.28236 11.2H27.0284ZM15.2996 27C15.2996 27.718 14.7175 28.3 13.9996 28.3C13.2816 28.3 12.6996 27.718 12.6996 27C12.6996 26.282 13.2816 25.7 13.9996 25.7C14.7175 25.7 15.2996 26.282 15.2996 27ZM23.2996 27C23.2996 27.718 22.7175 28.3 21.9996 28.3C21.2816 28.3 20.6996 27.718 20.6996 27C20.6996 26.282 21.2816 25.7 21.9996 25.7C22.7175 25.7 23.2996 26.282 23.2996 27Z" stroke="#3D4049" stroke-width="1.4"/>
<path d="M9 11L7 5C6.83333 4.5 6.1 3.5 4.5 3.5C2.9 3.5 1.5 3.5 1 3.5" stroke="#3D4049" stroke-width="1.4"/>
</svg>
