<svg width="27" height="26" viewBox="0 0 27 26" fill="none" xmlns="http://www.w3.org/2000/svg">
<path d="M26.3063 8L22.6397 19H11.3608C10.4222 16.1661 8.989 11.6232 8.02213 8H26.3063ZM14.5 24C14.5 24.8284 13.8285 25.5 13 25.5C12.1716 25.5 11.5 24.8284 11.5 24C11.5 23.1716 12.1716 22.5 13 22.5C13.8285 22.5 14.5 23.1716 14.5 24ZM22.5 24C22.5 24.8284 21.8285 25.5 21 25.5C20.1716 25.5 19.5 24.8284 19.5 24C19.5 23.1716 20.1716 22.5 21 22.5C21.8285 22.5 22.5 23.1716 22.5 24Z" stroke="#292929"/>
<path d="M8 8L6 2C5.83333 1.5 5.1 0.5 3.5 0.5C1.9 0.5 0.5 0.5 0 0.5" stroke="#292929"/>
</svg>
