<svg width="27" height="27" viewBox="0 0 27 27" fill="none" xmlns="http://www.w3.org/2000/svg">
<path d="M26.5 13.5C26.5 17.0149 25.1057 20.2031 22.839 22.5434C20.4752 24.984 17.1651 26.5 13.5 26.5C6.3203 26.5 0.5 20.6797 0.5 13.5C0.5 6.3203 6.3203 0.5 13.5 0.5C20.6797 0.5 26.5 6.3203 26.5 13.5Z" stroke="#BEB1A5"/>
<path d="M18.5 9.5C18.5 10.852 17.964 12.0778 17.0919 12.9782C16.1824 13.9173 14.9097 14.5 13.5 14.5C10.7386 14.5 8.5 12.2614 8.5 9.5C8.5 6.73858 10.7386 4.5 13.5 4.5C16.2614 4.5 18.5 6.73858 18.5 9.5Z" stroke="#BEB1A5"/>
<path d="M3 21.5C4 19.8333 7.5 16.5 13.5 16.5C19.5 16.5 23 19.5 24 21" stroke="#BEB1A5"/>
</svg>
