<svg width="27" height="27" viewBox="0 0 27 27" fill="none" xmlns="http://www.w3.org/2000/svg">
<path d="M25.1248 25.125L19.5151 19.5153M19.5151 19.5153C20.4746 18.5557 21.2358 17.4166 21.7551 16.1628C22.2744 14.9091 22.5417 13.5654 22.5417 12.2083C22.5417 10.8513 22.2744 9.50757 21.7551 8.25384C21.2358 7.00011 20.4746 5.86095 19.5151 4.90138C18.5555 3.94182 17.4163 3.18065 16.1626 2.66134C14.9089 2.14203 13.5651 1.87474 12.2081 1.87474C10.8511 1.87474 9.50734 2.14203 8.25361 2.66134C6.99988 3.18065 5.86072 3.94182 4.90115 4.90138C2.96323 6.83931 1.87451 9.4677 1.87451 12.2083C1.87451 14.949 2.96323 17.5774 4.90115 19.5153C6.83908 21.4532 9.46747 22.5419 12.2081 22.5419C14.9488 22.5419 17.5771 21.4532 19.5151 19.5153Z" stroke="#3D4049" stroke-width="2" stroke-linecap="round" stroke-linejoin="round"/>
</svg>
