<svg width="31" height="31" viewBox="0 0 31 31" fill="none" xmlns="http://www.w3.org/2000/svg">
<path d="M27.1253 27.125L21.5156 21.5153M21.5156 21.5153C22.4751 20.5557 23.2363 19.4166 23.7556 18.1629C24.2749 16.9091 24.5422 15.5654 24.5422 14.2084C24.5422 12.8513 24.2749 11.5076 23.7556 10.2539C23.2363 9.00013 22.4751 7.86096 21.5156 6.9014C20.556 5.94183 19.4168 5.18067 18.1631 4.66135C16.9094 4.14204 15.5656 3.87476 14.2086 3.87476C12.8516 3.87476 11.5078 4.14204 10.2541 4.66135C9.00037 5.18067 7.8612 5.94183 6.90164 6.9014C4.96372 8.83932 3.875 11.4677 3.875 14.2084C3.875 16.949 4.96372 19.5774 6.90164 21.5153C8.83957 23.4532 11.468 24.542 14.2086 24.542C16.9492 24.542 19.5776 23.4532 21.5156 21.5153Z" stroke="#BEB1A5" stroke-width="2" stroke-linecap="round" stroke-linejoin="round"/>
</svg>
