<svg width="28" height="27" viewBox="0 0 28 27" fill="none" xmlns="http://www.w3.org/2000/svg">
<path d="M23.9706 12.1765C23.9706 15.3335 22.7183 18.1971 20.6823 20.2992C18.5591 22.4913 15.5861 23.8529 12.2941 23.8529C5.84541 23.8529 0.617676 18.6252 0.617676 12.1765C0.617676 5.72773 5.84541 0.5 12.2941 0.5C18.7429 0.5 23.9706 5.72773 23.9706 12.1765Z" stroke="#3D4049"/>
<path d="M26.6621 26.7214C26.8656 26.9081 27.1819 26.8944 27.3685 26.6909C27.5552 26.4874 27.5415 26.1711 27.338 25.9844L26.6621 26.7214ZM20.2797 20.8685L26.6621 26.7214L27.338 25.9844L20.9556 20.1315L20.2797 20.8685Z" fill="#3D4049"/>
</svg>
